<?xml version="1.0" standalone="no"?>
<svg xmlns="http://www.w3.org/2000/svg" width="3425" height="2020" viewBox="0 0 3425 2020">
<rect x="0" y="0" width="3425" height="2020" fill="#ffffff"/>
<defs><marker id="arrow" viewBox="0 0 10 10" refX="9" refY="5" markerWidth="7" markerHeight="7" orient="auto-start-reverse"><path d="M 0 0 L 10 5 L 0 10 z" fill="#000000"/></marker></defs>
<rect x="0" y="0" width="3425" height="2020" fill="none" stroke="#000000" stroke-width="6"/>
<line x1="967" y1="770" x2="1448" y2="770" stroke="#000000" stroke-width="5" marker-end="url(#arrow)"/>
<line x1="2018" y1="770" x2="2457" y2="770" stroke="#000000" stroke-width="5" marker-end="url(#arrow)"/>
<line x1="1484" y1="1337" x2="919" y2="1337" stroke="#000000" stroke-width="5" marker-end="url(#arrow)"/>
<line x1="2487" y1="1337" x2="2054" y2="1337" stroke="#000000" stroke-width="5" marker-end="url(#arrow)"/>
<line x1="533" y1="307" x2="533" y2="623" stroke="#000000" stroke-width="5" marker-end="url(#arrow)"/>
<line x1="533" y1="1484" x2="533" y2="1804" stroke="#000000" stroke-width="5" marker-end="url(#arrow)"/>
<line x1="2832" y1="980" x2="2832" y2="1211" stroke="#000000" stroke-width="5" marker-end="url(#arrow)"/>
<line x1="1759" y1="10" x2="1759" y2="2010" stroke="#000000" stroke-width="5"/>
<text x="214" y="112" font-family="Helvetica" font-size="58" fill="#000000">Originator Customer Party</text>
<text x="2452" y="112" font-family="Helvetica" font-size="58" fill="#000000">Seller Supplier Party</text>
<circle cx="526" cy="1876" r="62" fill="none" stroke="#000000" stroke-width="5"/>
<circle cx="526" cy="1876" r="24" fill="#000000" stroke="none"/>
<circle cx="534" cy="236" r="62" fill="#000000" stroke="none"/>
<rect x="2513" y="1237" width="760" height="209" rx="33" ry="33" fill="#ffffff" stroke="#000000" stroke-width="5"/>
<text x="2893" y="1353" text-anchor="middle" font-family="Helvetica" font-size="52" style="font-weight:bold;" fill="#000000">Send quotation</text>
<rect x="168" y="1213" width="725" height="245" rx="39" ry="39" fill="#ffffff" stroke="#000000" stroke-width="5"/>
<text x="530" y="1347" text-anchor="middle" font-family="Helvetica" font-size="52" style="font-weight:bold;" fill="#000000">Receive quotation</text>
<rect x="1510" y="1199" width="518" height="279" rx="0" ry="0" fill="#ffffff" stroke="#000000" stroke-width="5"/>
<text x="1769" y="1350" text-anchor="middle" font-family="Helvetica" font-size="52" style="font-weight:bold;font-style:italic;" fill="#000000">Quotation</text>
<rect x="144" y="649" width="797" height="245" rx="39" ry="39" fill="#ffffff" stroke="#000000" stroke-width="5"/>
<text x="542" y="783" text-anchor="middle" font-family="Helvetica" font-size="49" style="font-weight:bold;" fill="#000000">Send request for Quotation</text>
<rect x="2483" y="631" width="694" height="323" rx="52" ry="52" fill="#ffffff" stroke="#000000" stroke-width="5"/>
<text x="2830" y="772" text-anchor="middle" font-family="Helvetica" font-size="52" style="font-weight:bold;" fill="#000000">Receive request for</text>
<text x="2830" y="837" text-anchor="middle" font-family="Helvetica" font-size="52" style="font-weight:bold;" fill="#000000">quotation</text>
<rect x="1474" y="629" width="518" height="279" rx="0" ry="0" fill="#ffffff" stroke="#000000" stroke-width="5"/>
<text x="1733" y="748" text-anchor="middle" font-family="Helvetica" font-size="52" style="font-weight:bold;font-style:italic;" fill="#000000">Request for</text>
<text x="1733" y="813" text-anchor="middle" font-family="Helvetica" font-size="52" style="font-weight:bold;font-style:italic;" fill="#000000">Quotation</text>
</svg>